<svg width="36" height="36" viewBox="0 0 36 36" fill="none" xmlns="http://www.w3.org/2000/svg">
<g clip-path="url(#clip0_3_19)">
<path d="M35.445 7C34.752 5.809 33.477 5 32 5H18V7H35.445ZM0 25H36V27H0V25ZM18 17H36V19H18V17ZM18 13H36V15H18V13ZM0 21H36V23H0V21ZM4 31H32C33.477 31 34.752 30.191 35.445 29H0.555C1.248 30.191 2.523 31 4 31ZM18 9H36V11H18V9Z" fill="#B22334"/>
<path d="M0.068 27.679C0.085 27.772 0.104 27.865 0.127 27.956C0.153 28.057 0.185 28.154 0.219 28.252C0.308 28.511 0.416 28.761 0.552 28.995L0.555 29H35.445L35.447 28.996C35.5812 28.7602 35.6924 28.5121 35.779 28.255C35.8449 28.0673 35.8957 27.8747 35.931 27.679C35.972 27.459 36 27.233 36 27H0C0 27.233 0.028 27.458 0.068 27.679ZM0 23H36V25H0V23ZM0 19V21H36V19H18H0ZM18 15H36V17H18V15ZM18 11H36V13H18V11ZM0.555 7L0.552 7.005L0.555 7ZM0.128 8.044C0.153 7.942 0.188 7.845 0.22 7.747C0.185273 7.8447 0.15458 7.94378 0.128 8.044V8.044ZM18 9H36C36 8.767 35.972 8.541 35.931 8.32C35.896 8.12411 35.8448 7.93145 35.778 7.744C35.6913 7.48581 35.5798 7.23665 35.445 7H18V9Z" fill="#EEEEEE"/>
<path d="M18 5H4C2.93913 5 1.92172 5.42143 1.17157 6.17157C0.421427 6.92172 0 7.93913 0 9L0 19H18V5Z" fill="#3C3B6E"/>
<path d="M2.001 7.726L2.619 8.175L2.383 8.9L3 8.452L3.618 8.9L3.382 8.175L4 7.726H3.236L3 7L2.765 7.726H2.001ZM4.001 9.726L4.619 10.175L4.383 10.9L5 10.452L5.618 10.9L5.382 10.175L6 9.726H5.236L5 9L4.765 9.726H4.001ZM8.001 9.726L8.619 10.175L8.383 10.9L9 10.452L9.618 10.9L9.382 10.175L10 9.726H9.236L9 9L8.765 9.726H8.001ZM12.001 9.726L12.619 10.175L12.383 10.9L13 10.452L13.618 10.9L13.382 10.175L14 9.726H13.236L13 9L12.765 9.726H12.001ZM4.001 13.726L4.619 14.175L4.383 14.9L5 14.452L5.618 14.9L5.382 14.175L6 13.726H5.236L5 13L4.765 13.726H4.001ZM8.001 13.726L8.619 14.175L8.383 14.9L9 14.452L9.618 14.9L9.382 14.175L10 13.726H9.236L9 13L8.765 13.726H8.001ZM12.001 13.726L12.619 14.175L12.383 14.9L13 14.452L13.618 14.9L13.382 14.175L14 13.726H13.236L13 13L12.765 13.726H12.001ZM6.001 7.726L6.619 8.175L6.383 8.9L7 8.452L7.618 8.9L7.382 8.175L8 7.726H7.236L7 7L6.765 7.726H6.001ZM10.001 7.726L10.619 8.175L10.383 8.9L11 8.452L11.618 8.9L11.382 8.175L12 7.726H11.236L11 7L10.765 7.726H10.001ZM14.001 7.726L14.619 8.175L14.383 8.9L15 8.452L15.618 8.9L15.382 8.175L16 7.726H15.236L15 7L14.765 7.726H14.001ZM2.001 11.726L2.619 12.175L2.383 12.9L3 12.452L3.618 12.9L3.382 12.175L4 11.726H3.236L3 11L2.765 11.726H2.001ZM6.383 12.9L7 12.452L7.618 12.9L7.382 12.175L8 11.726H7.236L7 11L6.765 11.726H6.001L6.619 12.175L6.383 12.9ZM10.001 11.726L10.619 12.175L10.383 12.9L11 12.452L11.618 12.9L11.382 12.175L12 11.726H11.236L11 11L10.765 11.726H10.001ZM14.001 11.726L14.619 12.175L14.383 12.9L15 12.452L15.618 12.9L15.382 12.175L16 11.726H15.236L15 11L14.765 11.726H14.001ZM2.001 15.726L2.619 16.175L2.383 16.9L3 16.452L3.618 16.9L3.382 16.175L4 15.726H3.236L3 15L2.765 15.726H2.001ZM6.383 16.9L7 16.452L7.618 16.9L7.382 16.175L8 15.726H7.236L7 15L6.765 15.726H6.001L6.619 16.175L6.383 16.9ZM10.001 15.726L10.619 16.175L10.383 16.9L11 16.452L11.618 16.9L11.382 16.175L12 15.726H11.236L11 15L10.765 15.726H10.001ZM14.001 15.726L14.619 16.175L14.383 16.9L15 16.452L15.618 16.9L15.382 16.175L16 15.726H15.236L15 15L14.765 15.726H14.001Z" fill="white"/>
</g>
<defs>
<clipPath id="clip0_3_19">
<rect width="36" height="36" fill="white"/>
</clipPath>
</defs>
</svg>
